{"title":"Dr. Dre Ft. Eminem &amp; Skylar Grey - I Need A Doctor [Explicit","uid":9018638,"size":137492801,"categoryP":"video","categoryS":"music_videos","magnet":"?xt=urn:btih:6c76c9d2f56e6f0c43a62b91d798e50513569557&amp;dn=Dr.+Dre+Ft.+Eminem+%26amp%3B+Skylar+Grey+-+I+Need+A+Doctor+%5BExplicit&amp;tr=udp%3A%2F%2Ftracker.openbittorrent.com%3A80&amp;tr=udp%3A%2F%2Fopen.demonii.com%3A1337&amp;tr=udp%3A%2F%2Ftracker.coppersurfer.tk%3A6969&amp;tr=udp%3A%2F%2Fexodus.desync.com%3A6969","seeders":5,"leechers":0,"uploader":"Sbyky","files":1,"time":1381247197,"description":"[IMG]http://cdn.piczend.com/images/hDhPMz1F/1381239392_ineedadoctorexplicit.jpg[/IMG]\n\nGeneral\nComplete name                            : Dr. Dre Ft. Eminem &amp; Skylar Grey - I Need A Doctor [Explicit] 720p [Sbyky].mp4\nFormat                                   : MPEG-4\nFormat profile                           : Base Media / Version 2\nCodec ID                                 : mp42\nFile size                                : 131 MiB\nDuration                                 : 7mn 36s\nOverall bit rate mode                    : Variable\nOverall bit rate                         : 2 408 Kbps\nEncoded date                             : UTC 2013-04-08 09:27:06\nTagged date                              : UTC 2013-04-08 09:27:06\n\nVideo\nID                                       : 1\nFormat                                   : AVC\nFormat/Info                              : Advanced Video Codec\nFormat profile                           : &lt;a class=&quot;__cf_email__&quot; href=&quot;/cdn-cgi/l/email-protection&quot; data-cfemail=&quot;662e0f010e262a554857&quot;&gt;[email&amp;#160;protected]&lt;/a&gt;&lt;script cf-hash='f9e31' type=&quot;text/javascript&quot;&gt;\n/* &lt;![CDATA[ */!function(){try{var t=&quot;currentScript&quot;in document?document.currentScript:function(){for(var t=document.getElementsByTagName(&quot;script&quot;),e=t.length;e--;)if(t[e].getAttribute(&quot;cf-hash&quot;))return t[e]}();if(t&amp;&amp;t.previousSibling){var e,r,n,i,c=t.previousSibling,a=c.getAttribute(&quot;data-cfemail&quot;);if(a){for(e=&quot;&quot;,r=parseInt(a.substr(0,2),16),n=2;a.length-n;n+=2)i=parseInt(a.substr(n,2),16)^r,e+=String.fromCharCode(i);e=document.createTextNode(e),c.parentNode.replaceChild(e,c)}}}catch(u){}}();/* ]]&gt; */&lt;/script&gt;\nFormat settings, CABAC                   : Yes\nFormat settings, ReFrames                : 1 frame\nCodec ID                                 : avc1\nCodec ID/Info                            : Advanced Video Coding\nDuration                                 : 7mn 36s\nBit rate                                 : 2 213 Kbps\nMaximum bit rate                         : 9 608 Kbps\nWidth                                    : 1 280 pixels\nHeight                                   : 720 pixels\nDisplay aspect ratio                     : 16:9\nFrame rate mode                          : Constant\nFrame rate                               : 23.976 fps\nColor space                              : YUV\nChroma subsampling                       : 4:2:0\nBit depth                                : 8 bits\nScan type                                : Progressive\nBits/(Pixel*Frame)                       : 0.100\nStream size                              : 121 MiB (92%)\nTagged date                              : UTC 2013-04-08 09:35:30\n\nAudio\nID                                       : 2\nFormat                                   : AAC\nFormat/Info                              : Advanced Audio Codec\nFormat profile                           : LC\nCodec ID                                 : 40\nDuration                                 : 7mn 36s\nBit rate mode                            : Variable\nBit rate                                 : 192 Kbps\nMaximum bit rate                         : 201 Kbps\nChannel(s)                               : 2 channels\nChannel positions                        : Front: L R\nSampling rate                            : 44.1 KHz\nCompression mode                         : Lossy\nStream size                              : 10.5 MiB (8%)\nTitle                                    : IsoMedia File Produced by Google, 5-11-2011\nEncoded date                             : UTC 2013-04-08 09:32:21\nTagged date                              : UTC 2013-04-08 09:35:30\n\nShared By Sbyky\n[IMG]http://cdn.piczend.com/images/X3Ag13N3/1379453786_saythanks.gif[/IMG]\n[IMG]http://cdn.piczend.com/images/gGqhX2S8/1379453780_keepseeding.gif[/IMG]","torrent":{"xt":"urn:btih:6c76c9d2f56e6f0c43a62b91d798e50513569557","amp;dn":"Dr.+Dre+Ft.+Eminem+%26amp%3B+Skylar+Grey+-+I+Need+A+Doctor+%5BExplicit","amp;tr":["udp%3A%2F%2Ftracker.openbittorrent.com%3A80","udp%3A%2F%2Fopen.demonii.com%3A1337","udp%3A%2F%2Ftracker.coppersurfer.tk%3A6969","udp%3A%2F%2Fexodus.desync.com%3A6969"],"infoHash":"6c76c9d2f56e6f0c43a62b91d798e50513569557","infoHashBuffer":{"type":"Buffer","data":[108,118,201,210,245,110,111,12,67,166,43,145,215,152,229,5,19,86,149,87]},"announce":[],"urlList":[]}}